<svg width="24" height="25" viewBox="0 0 24 25" fill="none" xmlns="http://www.w3.org/2000/svg">
<g clip-path="url(#clip0_2101_8039)">
<path d="M12.9999 13.5V19.085L14.8279 17.257L16.2429 18.672L11.9999 22.914L7.75689 18.672L9.17189 17.257L10.9999 19.085V13.5H12.9999ZM11.9999 2.5C13.7169 2.50008 15.374 3.13111 16.6561 4.27312C17.9382 5.41512 18.756 6.98846 18.9539 8.694C20.1982 9.03332 21.2836 9.7991 22.0206 10.8575C22.7575 11.916 23.099 13.1997 22.9855 14.4844C22.872 15.7691 22.3106 16.973 21.3995 17.8858C20.4883 18.7986 19.2854 19.3622 18.0009 19.478L17.9999 17.5C18.0015 15.9271 17.3854 14.4166 16.2842 13.2935C15.1831 12.1703 13.685 11.5245 12.1124 11.495C10.5398 11.4655 9.01856 12.0547 7.87608 13.1357C6.7336 14.2168 6.0613 15.7032 6.00389 17.275L5.99989 17.5V19.478C4.71534 19.3623 3.5123 18.7989 2.60103 17.8862C1.68976 16.9735 1.12822 15.7696 1.01457 14.4848C0.900915 13.2001 1.24237 11.9163 1.97926 10.8578C2.71615 9.79926 3.8016 9.03339 5.04589 8.694C5.2436 6.98838 6.0613 5.41491 7.34347 4.27287C8.62565 3.13082 10.2829 2.49986 11.9999 2.5Z" fill="#333333"/>
</g>
<defs>
<clipPath id="clip0_2101_8039">
<rect width="24" height="24" fill="white" transform="translate(0 0.5)"/>
</clipPath>
</defs>
</svg>
