<svg width="60" height="60" viewBox="0 0 60 60" fill="none" xmlns="http://www.w3.org/2000/svg">
<rect width="60" height="60" rx="30" fill="#333333"/>
<g clip-path="url(#clip0_2142_32)">
<path d="M14.2461 31.5831H22.918C23.1889 36.5973 24.7872 41.4495 27.5493 45.6431C24.0896 45.0997 20.9075 43.4251 18.5005 40.8812C16.0936 38.3373 14.5975 35.0676 14.2461 31.5831ZM14.2461 28.4164C14.5975 24.932 16.0936 21.6622 18.5005 19.1183C20.9075 16.5745 24.0896 14.8999 27.5493 14.3564C24.7872 18.5501 23.1889 23.4023 22.918 28.4164H14.2461ZM45.7544 28.4164H37.0825C36.8116 23.4023 35.2133 18.5501 32.4513 14.3564C35.9109 14.8999 39.093 16.5745 41.5 19.1183C43.9069 21.6622 45.4031 24.932 45.7544 28.4164ZM45.7544 31.5831C45.4031 35.0676 43.9069 38.3373 41.5 40.8812C39.093 43.4251 35.9109 45.0997 32.4513 45.6431C35.2133 41.4495 36.8116 36.5973 37.0825 31.5831H45.756H45.7544ZM26.0894 31.5831H33.9111C33.6505 35.8573 32.3045 39.9945 30.0003 43.6038C27.696 39.9945 26.35 35.8573 26.0894 31.5831ZM26.0894 28.4164C26.35 24.1423 27.696 20.0051 30.0003 16.3958C32.3045 20.0051 33.6505 24.1423 33.9111 28.4164H26.0894Z" fill="#FECC01"/>
</g>
<defs>
<clipPath id="clip0_2142_32">
<rect width="38" height="38" fill="white" transform="translate(11 11)"/>
</clipPath>
</defs>
</svg>
