<svg width="100" height="100" viewBox="0 0 100 100" fill="none" xmlns="http://www.w3.org/2000/svg">
<g filter="url(#filter0_d_2142_31)">
<rect x="10" y="10" width="80" height="80" rx="40" fill="white" shape-rendering="crispEdges"/>
<rect x="20" y="20" width="60" height="60" rx="30" fill="#333333"/>
<g clip-path="url(#clip0_2142_31)">
<path d="M34.2461 51.5831H42.918C43.1889 56.5973 44.7872 61.4495 47.5493 65.6431C44.0896 65.0997 40.9075 63.4251 38.5005 60.8812C36.0936 58.3373 34.5975 55.0675 34.2461 51.5831V51.5831ZM34.2461 48.4164C34.5975 44.932 36.0936 41.6622 38.5005 39.1183C40.9075 36.5745 44.0896 34.8999 47.5493 34.3564C44.7872 38.5501 43.1889 43.4023 42.918 48.4164H34.2461ZM65.7544 48.4164H57.0825C56.8116 43.4023 55.2133 38.5501 52.4513 34.3564C55.9109 34.8999 59.093 36.5745 61.5 39.1183C63.9069 41.6622 65.4031 44.932 65.7544 48.4164V48.4164ZM65.7544 51.5831C65.4031 55.0675 63.9069 58.3373 61.5 60.8812C59.093 63.4251 55.9109 65.0997 52.4513 65.6431C55.2133 61.4495 56.8116 56.5973 57.0825 51.5831H65.756H65.7544ZM46.0894 51.5831H53.9111C53.6505 55.8573 52.3045 59.9945 50.0003 63.6038C47.696 59.9945 46.35 55.8573 46.0894 51.5831V51.5831ZM46.0894 48.4164C46.35 44.1423 47.696 40.0051 50.0003 36.3958C52.3045 40.0051 53.6505 44.1423 53.9111 48.4164H46.0894Z" fill="#FECC01"/>
</g>
</g>
<defs>
<filter id="filter0_d_2142_31" x="0" y="0" width="100" height="100" filterUnits="userSpaceOnUse" color-interpolation-filters="sRGB">
<feFlood flood-opacity="0" result="BackgroundImageFix"/>
<feColorMatrix in="SourceAlpha" type="matrix" values="0 0 0 0 0 0 0 0 0 0 0 0 0 0 0 0 0 0 127 0" result="hardAlpha"/>
<feOffset/>
<feGaussianBlur stdDeviation="5"/>
<feComposite in2="hardAlpha" operator="out"/>
<feColorMatrix type="matrix" values="0 0 0 0 0 0 0 0 0 0 0 0 0 0 0 0 0 0 0.25 0"/>
<feBlend mode="normal" in2="BackgroundImageFix" result="effect1_dropShadow_2142_31"/>
<feBlend mode="normal" in="SourceGraphic" in2="effect1_dropShadow_2142_31" result="shape"/>
</filter>
<clipPath id="clip0_2142_31">
<rect width="38" height="38" fill="white" transform="translate(31 31)"/>
</clipPath>
</defs>
</svg>
