<svg width="100" height="100" viewBox="0 0 100 100" fill="none" xmlns="http://www.w3.org/2000/svg">
<g filter="url(#filter0_d_2142_38)">
<rect x="10" y="10" width="80" height="80" rx="40" fill="white" shape-rendering="crispEdges"/>
<rect x="20" y="20" width="60" height="60" rx="30" fill="#333333"/>
<g clip-path="url(#clip0_2142_38)">
<path d="M51.5829 51.5837V60.4266L54.4773 57.5322L56.7177 59.7727L49.9996 66.4892L43.2815 59.7727L45.5219 57.5322L48.4163 60.4266V51.5837H51.5829ZM49.9996 34.167C52.7181 34.1671 55.3419 35.1663 57.3719 36.9744C59.4019 38.7826 60.6967 41.2737 61.0101 43.9742C62.9802 44.5114 64.6988 45.7239 65.8656 47.3997C67.0325 49.0756 67.5732 51.1082 67.3935 53.1423C67.2137 55.1764 66.3249 57.0826 64.8822 58.5279C63.4396 59.9731 61.535 60.8654 59.5012 61.0488L59.4996 57.917C59.5021 55.4266 58.5266 53.0349 56.7831 51.2566C55.0397 49.4784 52.6677 48.4558 50.1777 48.4091C47.6878 48.3624 45.2791 49.2953 43.4702 51.0069C41.6613 52.7186 40.5968 55.072 40.5059 57.5607L40.4996 57.917V61.0488C38.4657 60.8657 36.5609 59.9736 35.118 58.5285C33.6752 57.0833 32.7861 55.1771 32.6062 53.143C32.4262 51.1088 32.9668 49.0761 34.1336 47.4001C35.3003 45.7242 37.019 44.5115 38.9891 43.9742C39.3021 41.2736 40.5968 38.7823 42.6269 36.974C44.657 35.1658 47.2809 34.1668 49.9996 34.167V34.167Z" fill="#FECC01"/>
</g>
</g>
<defs>
<filter id="filter0_d_2142_38" x="0" y="0" width="100" height="100" filterUnits="userSpaceOnUse" color-interpolation-filters="sRGB">
<feFlood flood-opacity="0" result="BackgroundImageFix"/>
<feColorMatrix in="SourceAlpha" type="matrix" values="0 0 0 0 0 0 0 0 0 0 0 0 0 0 0 0 0 0 127 0" result="hardAlpha"/>
<feOffset/>
<feGaussianBlur stdDeviation="5"/>
<feComposite in2="hardAlpha" operator="out"/>
<feColorMatrix type="matrix" values="0 0 0 0 0 0 0 0 0 0 0 0 0 0 0 0 0 0 0.25 0"/>
<feBlend mode="normal" in2="BackgroundImageFix" result="effect1_dropShadow_2142_38"/>
<feBlend mode="normal" in="SourceGraphic" in2="effect1_dropShadow_2142_38" result="shape"/>
</filter>
<clipPath id="clip0_2142_38">
<rect width="38" height="38" fill="white" transform="translate(31 31)"/>
</clipPath>
</defs>
</svg>
