<svg width="60" height="60" viewBox="0 0 60 60" fill="none" xmlns="http://www.w3.org/2000/svg">
<rect width="60" height="60" rx="30" fill="#333333"/>
<g clip-path="url(#clip0_2142_39)">
<path d="M31.5829 31.5837V40.4266L34.4773 37.5322L36.7177 39.7727L29.9996 46.4892L23.2815 39.7727L25.5219 37.5322L28.4163 40.4266V31.5837H31.5829ZM29.9996 14.167C32.7181 14.1671 35.3419 15.1663 37.3719 16.9744C39.4019 18.7826 40.6967 21.2737 41.0101 23.9742C42.9802 24.5114 44.6988 25.7239 45.8656 27.3997C47.0325 29.0756 47.5732 31.1082 47.3935 33.1423C47.2137 35.1764 46.3249 37.0826 44.8822 38.5279C43.4396 39.9731 41.535 40.8654 39.5012 41.0488L39.4996 37.917C39.5021 35.4266 38.5266 33.0349 36.7831 31.2566C35.0397 29.4784 32.6677 28.4558 30.1777 28.4091C27.6878 28.3624 25.2791 29.2953 23.4702 31.0069C21.6613 32.7186 20.5968 35.072 20.5059 37.5607L20.4996 37.917V41.0488C18.4657 40.8657 16.5609 39.9736 15.118 38.5285C13.6752 37.0833 12.7861 35.1771 12.6062 33.143C12.4262 31.1088 12.9668 29.0761 14.1336 27.4001C15.3003 25.7242 17.019 24.5115 18.9891 23.9742C19.3021 21.2736 20.5968 18.7823 22.6269 16.974C24.657 15.1658 27.2809 14.1668 29.9996 14.167Z" fill="#FECC01"/>
</g>
<defs>
<clipPath id="clip0_2142_39">
<rect width="38" height="38" fill="white" transform="translate(11 11)"/>
</clipPath>
</defs>
</svg>
